<?xml version="1.0" encoding="UTF-8"?> <svg xmlns="http://www.w3.org/2000/svg" width="6840" height="4906" viewBox="0 0 6840 4906" fill="none"> <g filter="url(#filter0_f_331_31)"> <path d="M948.648 3957.3C1385.8 3957.8 1858.34 3916.29 2337.18 3835.3C2816.02 3754.32 3291.03 3635.59 3732.96 3486.42C4174.9 3337.25 4574.41 3160.79 4906.9 2967.91C5239.4 2775.03 5497.84 2569.82 5666.32 2364.89C5834.8 2159.96 5909.75 1959.66 5886.56 1776.32C5863.37 1592.98 5742.54 1430.48 5531.49 1298.82C5320.44 1167.16 5023.65 1069.12 4659.38 1010.75C4295.1 952.377 3871.07 934.901 3413.36 959.398L3087.36 1431.21C3400.48 1414.45 3690.57 1426.41 3939.77 1466.34C4188.97 1506.27 4392.01 1573.34 4536.39 1663.41C4680.77 1753.48 4763.43 1864.65 4779.29 1990.07C4795.16 2115.5 4743.88 2252.52 4628.62 2392.72C4513.36 2532.91 4336.56 2673.3 4109.1 2805.25C3881.64 2937.2 3608.33 3057.91 3306 3159.96C3003.67 3262.01 2678.71 3343.24 2351.13 3398.64C2023.56 3454.04 1700.29 3482.44 1401.23 3482.1L948.648 3957.3Z" fill="#ACACAC"></path> </g> <defs> <filter id="filter0_f_331_31" x="0" y="0.000463207" width="6839.33" height="4905.96" filterUnits="userSpaceOnUse" color-interpolation-filters="sRGB"> <feFlood flood-opacity="0" result="BackgroundImageFix"></feFlood> <feBlend mode="normal" in="SourceGraphic" in2="BackgroundImageFix" result="shape"></feBlend> <feGaussianBlur stdDeviation="125" result="effect1_foregroundBlur_331_31"></feGaussianBlur> </filter> </defs> </svg> 