<?xml version="1.0" encoding="UTF-8"?> <svg xmlns="http://www.w3.org/2000/svg" width="6943" height="4834" viewBox="0 0 6943 4834" fill="none"> <g filter="url(#filter0_f_331_15)"> <path d="M6089.93 861.669C5636.92 838.337 5144.95 858.678 4644.3 921.44C4143.64 984.203 3644.91 1088.06 3178.78 1226.61C2712.66 1365.17 2289.02 1535.49 1933.93 1727.1C1578.85 1918.71 1299.83 2127.55 1114.06 2340.76C928.292 2553.97 839.7 2767.04 853.738 2966.86C867.777 3166.68 984.15 3349.01 1195.69 3502.64C1407.23 3656.27 1709.47 3777.94 2083.8 3860.17C2458.12 3942.39 2896.61 3983.43 3372.28 3980.76L3735.85 3486.65C3410.44 3488.48 3110.46 3460.4 2854.38 3404.15C2598.3 3347.9 2391.54 3264.66 2246.82 3159.56C2102.1 3054.47 2022.49 2929.73 2012.89 2793.03C2003.28 2656.33 2063.89 2510.57 2190.98 2364.71C2318.06 2218.85 2508.94 2075.99 2751.86 1944.9C2994.78 1813.82 3284.59 1697.3 3603.47 1602.52C3922.35 1507.73 4263.54 1436.68 4606.04 1393.75C4948.54 1350.81 5285.1 1336.89 5595.01 1352.86L6089.93 861.669Z" fill="#ACACAC"></path> </g> <defs> <filter id="filter0_f_331_15" x="0" y="0" width="6942.23" height="4833.18" filterUnits="userSpaceOnUse" color-interpolation-filters="sRGB"> <feFlood flood-opacity="0" result="BackgroundImageFix"></feFlood> <feBlend mode="normal" in="SourceGraphic" in2="BackgroundImageFix" result="shape"></feBlend> <feGaussianBlur stdDeviation="125" result="effect1_foregroundBlur_331_15"></feGaussianBlur> </filter> </defs> </svg> 