<?xml version="1.0" encoding="UTF-8" standalone="no"?> <svg xmlns="http://www.w3.org/2000/svg" width="3673.000000pt" height="1093.000000pt" viewBox="0 0 3673.000000 1093.000000" preserveAspectRatio="xMidYMid meet"> <g transform="translate(0.000000,1093.000000) scale(0.100000,-0.100000)" fill="black" stroke="none"> <path d="M12318 8328 l-3 -2593 -449 2550 c-247 1403 -450 2551 -451 2553 -4 6 -155 -22 -155 -30 0 -4 200 -1144 445 -2534 245 -1389 445 -2530 443 -2535 -2 -6 -394 1065 -872 2378 -478 1313 -875 2405 -883 2425 l-15 37 -71 -26 c-40 -15 -73 -27 -74 -28 -2 -1 395 -1094 882 -2430 486 -1336 883 -2431 881 -2432 -2 -2 -585 1005 -1296 2237 l-1293 2240 -56 -31 c-31 -17 -61 -36 -68 -43 -9 -8 296 -543 1274 -2236 706 -1224 1289 -2234 1294 -2245 13 -26 186 -232 -1681 1993 l-1645 1960 -25 -19 c-14 -10 -41 -33 -62 -51 l-36 -33 1419 -1690 c1854 -2208 1910 -2275 1905 -2275 -2 0 -895 747 -1983 1660 -1088 913 -1981 1659 -1985 1657 -5 -1 -28 -27 -53 -57 l-45 -55 28 -26 c15 -15 896 -754 1957 -1644 1062 -890 1941 -1629 1955 -1643 20 -19 21 -22 5 -14 -11 6 -1021 589 -2244 1295 l-2225 1285 -38 -66 c-31 -53 -36 -68 -26 -77 7 -7 1013 -590 2236 -1295 1222 -706 2221 -1284 2219 -1286 -3 -3 -4776 1731 -4833 1755 -20 9 -24 4 -49 -66 -14 -41 -25 -76 -23 -77 2 -1 1097 -400 2435 -887 1337 -486 2430 -885 2429 -887 -2 -1 -1150 200 -2552 447 -1402 247 -2550 449 -2551 447 -5 -5 -26 -147 -22 -151 3 -2 1150 -206 2549 -454 l2545 -449 -2587 -1 -2588 -1 0 -80 0 -80 6120 0 6120 0 0 80 0 80 -2587 1 -2588 1 2545 449 c1399 248 2546 452 2548 454 2 2 -2 38 -9 80 -12 74 -12 76 -38 70 -76 -15 -5075 -895 -5077 -893 -1 2 1091 401 2427 888 1337 486 2432 886 2434 889 6 11 -47 141 -57 141 -6 0 -1099 -396 -2430 -881 -1331 -484 -2421 -879 -2423 -877 -1 2 1003 583 2232 1293 1229 709 2236 1292 2238 1295 2 3 -13 34 -32 68 -25 45 -40 62 -52 59 -13 -3 -4327 -2491 -4438 -2559 -18 -11 -33 -17 -33 -14 0 2 891 753 1980 1666 l1980 1662 -32 40 c-18 22 -40 50 -50 61 -14 19 -18 19 -34 7 -11 -8 -899 -753 -1974 -1654 -1075 -902 -1964 -1646 -1975 -1655 -10 -9 15 25 56 74 42 50 792 944 1668 1988 876 1044 1591 1902 1589 1907 -2 4 -28 28 -58 53 -42 35 -58 43 -66 34 -7 -7 -753 -896 -1659 -1977 -906 -1081 -1652 -1969 -1658 -1975 -15 -15 -88 -142 1288 2242 708 1227 1288 2235 1288 2240 0 4 -29 25 -64 45 -52 30 -66 35 -74 24 -5 -8 -588 -1015 -1295 -2239 -706 -1225 -1286 -2225 -1287 -2223 -2 1 393 1091 877 2420 484 1330 880 2424 880 2431 0 14 -131 66 -141 56 -3 -3 -404 -1098 -889 -2433 -486 -1336 -884 -2427 -886 -2425 -1 1 200 1147 447 2547 247 1400 449 2548 449 2551 0 5 -151 32 -155 27 -1 -2 -205 -1150 -453 -2553 l-450 -2550 -1 2593 -1 2592 -80 0 -80 0 -2 -2592z"></path> <path d="M1894 10699 c-1136 -101 -1837 -865 -1678 -1829 78 -468 390 -802 979 -1048 194 -81 393 -145 855 -277 437 -125 689 -205 846 -270 289 -120 515 -274 639 -435 230 -299 257 -734 69 -1100 -181 -351 -532 -568 -1049 -646 -167 -25 -552 -26 -715 -1 -356 54 -691 182 -975 372 -163 108 -255 184 -407 334 -76 74 -131 121 -136 116 -5 -6 -77 -90 -161 -188 l-153 -177 30 -38 c47 -58 239 -242 326 -311 535 -424 1269 -635 2026 -582 406 28 701 101 985 241 177 88 302 177 435 310 234 234 375 520 431 875 16 102 16 375 0 484 -66 449 -295 783 -708 1035 -285 173 -593 289 -1308 491 -387 110 -641 192 -800 260 -399 170 -606 367 -681 650 -27 101 -25 320 4 427 127 471 546 779 1152 849 133 15 424 7 580 -16 497 -74 951 -309 1250 -647 l59 -68 147 163 c81 89 156 172 167 184 l20 22 -59 67 c-150 171 -419 367 -669 490 -429 210 -992 309 -1501 263z"></path> <path d="M21030 7665 l0 -2945 250 0 250 0 0 2945 0 2945 -250 0 -250 0 0 -2945z"></path> <path d="M26347 10598 c-7 -19 -2377 -5808 -2393 -5846 l-13 -32 292 2 292 3 280 696 c154 382 286 707 292 722 l13 27 1558 0 1558 0 288 -717 c159 -395 291 -721 295 -726 4 -4 136 -6 294 -5 l286 3 -1204 2940 -1203 2940 -315 3 c-246 2 -316 0 -320 -10z m1019 -2250 l690 -1713 -1385 -3 c-761 -1 -1386 0 -1389 2 -6 6 1380 3426 1389 3426 3 0 316 -771 695 -1712z"></path> <path d="M31200 7665 l0 -2945 250 0 250 0 2 2627 3 2627 1076 -2625 1076 -2624 99 -3 99 -2 1070 2621 1070 2621 3 -2621 2 -2621 255 0 255 0 0 2945 0 2945 -378 0 -378 0 -994 -2442 c-546 -1344 -996 -2446 -999 -2450 -4 -4 -457 1094 -1007 2440 l-1001 2447 -377 3 -376 2 0 -2945z"></path> <path d="M12135 2379 c-137 -20 -425 -127 -425 -159 0 -6 14 -44 30 -85 l31 -73 87 43 c365 182 797 133 927 -106 77 -142 21 -340 -118 -410 -100 -51 -109 -53 -397 -58 l-275 -6 -3 -76 -3 -76 273 -6 c346 -7 433 -27 545 -121 84 -71 118 -231 73 -348 -44 -119 -178 -220 -345 -263 -239 -62 -543 -2 -758 148 -31 22 -59 38 -61 36 -1 -2 -18 -33 -37 -67 l-34 -64 35 -30 c190 -162 558 -251 842 -204 355 58 578 264 578 535 0 133 -43 237 -137 326 -46 45 -147 103 -217 125 l-39 13 72 35 c91 44 179 135 212 219 19 48 23 78 24 169 0 107 -1 112 -37 185 -82 165 -245 274 -473 314 -94 16 -272 18 -370 4z"></path> <path d="M18694 2366 c-218 -42 -380 -122 -523 -260 -179 -174 -272 -379 -287 -636 -29 -476 264 -878 725 -997 199 -51 443 -40 637 28 325 114 555 380 620 716 20 106 18 298 -5 408 -73 354 -338 627 -701 722 -119 31 -353 41 -466 19z m358 -180 c306 -59 537 -278 608 -576 27 -116 27 -284 0 -400 -65 -272 -268 -482 -542 -561 -95 -27 -271 -36 -375 -19 -97 15 -213 56 -290 101 -32 19 -99 75 -149 124 -77 77 -98 105 -138 185 -69 141 -81 198 -81 375 0 129 3 160 23 225 88 280 310 484 592 545 86 18 260 19 352 1z"></path> <path d="M26602 2370 c-245 -35 -470 -145 -638 -314 -165 -166 -269 -371 -310 -614 -21 -119 -15 -356 11 -447 74 -262 269 -444 561 -522 89 -23 118 -26 284 -27 197 -1 277 10 418 58 390 133 670 480 733 905 15 104 7 325 -15 406 -22 82 -86 208 -140 277 -92 116 -246 208 -423 254 -80 21 -127 26 -258 29 -88 2 -188 0 -223 -5z m413 -194 c215 -58 362 -193 431 -396 26 -75 26 -342 1 -444 -86 -344 -329 -599 -653 -686 -101 -27 -300 -37 -412 -21 -383 56 -585 324 -542 719 47 441 340 767 757 842 75 14 348 5 418 -14z"></path> <path d="M29795 2365 c-268 -42 -466 -145 -651 -336 -153 -158 -254 -371 -290 -609 -75 -500 158 -856 626 -957 118 -25 381 -25 500 0 176 38 341 114 434 200 l56 52 -59 65 -59 64 -39 -36 c-98 -88 -255 -156 -412 -179 -103 -14 -310 -6 -401 16 -232 57 -396 220 -446 442 -22 99 -15 303 14 414 73 275 240 483 485 604 131 65 223 86 393 92 156 6 260 -9 366 -52 67 -27 176 -102 207 -141 l20 -26 71 62 70 63 -21 28 c-52 74 -171 150 -302 195 -151 52 -383 68 -562 39z"></path> <path d="M610 1410 l0 -950 833 -2 832 -3 3 -223 2 -222 90 0 90 0 0 310 0 310 -150 0 -150 0 0 865 0 865 -100 0 -100 0 0 -865 0 -865 -575 0 -575 0 0 865 0 865 -100 0 -100 0 0 -950z"></path> <path d="M3010 1410 l0 -950 675 0 675 0 0 85 0 85 -575 0 -575 0 0 355 0 355 490 0 490 0 0 85 0 85 -490 0 -490 0 0 340 0 340 550 0 550 0 0 85 0 85 -650 0 -650 0 0 -950z"></path> <path d="M4950 1410 l0 -950 100 0 100 0 0 440 0 440 595 0 595 0 0 -440 0 -440 100 0 100 0 0 950 0 950 -100 0 -100 0 0 -425 0 -425 -595 0 -595 0 0 425 0 425 -100 0 -100 0 0 -950z"></path> <path d="M7040 2275 l0 -85 335 0 335 0 0 -865 0 -865 100 0 100 0 0 865 0 865 335 0 335 0 0 85 0 85 -770 0 -770 0 0 -85z"></path> <path d="M9080 1411 l0 -951 100 0 100 0 0 300 0 300 308 0 c342 0 436 10 572 59 100 37 205 106 265 174 89 100 145 262 145 416 0 307 -166 522 -475 618 l-90 27 -462 4 -463 3 0 -950z m965 746 c97 -32 156 -68 213 -131 81 -89 118 -207 109 -351 -16 -262 -186 -409 -502 -436 -60 -5 -217 -9 -347 -9 l-238 0 0 481 0 481 343 -4 c339 -4 343 -4 422 -31z"></path> <path d="M14332 2343 c-11 -20 -813 -1772 -843 -1840 l-18 -43 103 0 103 0 114 253 114 252 533 0 533 0 112 -250 113 -250 106 -3 107 -3 -49 108 c-27 59 -222 486 -433 948 l-384 840 -101 3 c-88 2 -102 0 -110 -15z m339 -706 c122 -274 220 -500 217 -502 -3 -3 -208 -4 -456 -3 l-451 3 227 507 c124 279 229 504 233 500 4 -4 107 -231 230 -505z"></path> <path d="M15920 1409 l0 -950 498 3 c476 4 500 5 577 26 124 34 221 86 291 156 110 110 149 225 141 411 -6 130 -23 192 -77 273 -71 106 -192 179 -360 217 -62 14 -146 18 -472 22 l-398 5 0 309 0 309 598 2 597 3 3 83 3 82 -701 0 -700 0 0 -951z m1008 -22 c136 -36 229 -106 276 -206 18 -39 21 -65 21 -166 0 -111 -2 -124 -28 -176 -51 -104 -153 -174 -297 -205 -48 -10 -157 -14 -422 -14 l-358 0 0 396 0 396 373 -5 c302 -3 384 -7 435 -20z"></path> <path d="M20190 2275 l0 -85 335 0 335 0 0 -865 0 -865 100 0 100 0 0 865 0 865 335 0 335 0 0 85 0 85 -770 0 -770 0 0 -85z"></path> <path d="M22230 1410 l0 -950 453 0 c402 0 462 2 542 19 252 52 402 177 472 390 23 72 29 300 9 385 -37 157 -138 283 -279 350 -142 67 -159 69 -599 73 l-398 4 0 340 0 339 -100 0 -100 0 0 -950z m979 87 c139 -41 224 -107 274 -215 26 -56 31 -80 35 -170 6 -123 -7 -193 -51 -275 -36 -69 -98 -127 -174 -163 -102 -48 -160 -54 -525 -54 l-338 0 0 451 0 451 363 -5 c294 -3 372 -7 416 -20z"></path> <path d="M24060 1410 l0 -950 95 0 95 0 0 950 0 950 -95 0 -95 0 0 -950z"></path> <path d="M31157 1418 c-103 -519 -188 -946 -187 -950 0 -5 301 -8 670 -8 l670 0 5 23 c18 79 25 114 25 130 0 16 -34 17 -570 17 -313 0 -570 4 -570 8 0 8 125 639 135 680 l5 22 495 0 c272 0 495 2 495 4 0 2 7 40 15 83 8 43 15 79 15 81 0 1 -223 2 -495 2 l-494 0 6 33 c4 17 34 169 68 337 l61 305 555 3 556 2 16 78 c9 43 17 81 17 85 0 4 -294 7 -653 7 l-652 0 -188 -942z"></path> <path d="M33097 1418 c-103 -519 -188 -947 -187 -951 0 -5 226 -6 503 -4 435 3 512 6 577 21 274 64 451 203 521 407 26 78 37 239 20 319 -27 132 -105 232 -224 289 -122 58 -163 63 -593 70 l-391 6 61 307 60 308 600 2 601 3 11 50 c6 28 14 65 17 83 l7 32 -698 0 -697 0 -188 -942z m919 -19 c194 -27 290 -106 315 -262 13 -77 -2 -180 -36 -252 -49 -103 -157 -186 -310 -236 -67 -22 -84 -23 -463 -27 -376 -3 -394 -2 -388 15 2 10 37 180 76 378 39 198 73 368 76 378 5 16 29 17 329 17 178 0 358 -5 401 -11z"></path> <path d="M35227 1418 c-103 -519 -188 -946 -187 -951 0 -4 302 -6 672 -5 l672 3 17 83 16 82 -573 0 c-316 0 -574 4 -574 8 0 8 125 639 135 680 l5 22 495 0 495 0 4 23 c14 64 26 129 26 137 0 6 -188 10 -494 10 l-493 0 63 318 c35 174 66 327 69 340 l5 22 554 0 554 0 10 48 c6 26 14 64 17 85 l7 37 -653 0 -654 0 -188 -942z"></path> </g> </svg> 